 <svg version="1.0" xmlns="http://www.w3.org/2000/svg" width="700.000000pt" height="739.000000pt" viewBox="0 0 700.000000 739.000000" preserveAspectRatio="xMidYMid meet">
<metadata>
Created by potrace 1.12, written by Peter Selinger 2001-2015
</metadata>
<g transform="translate(0.000000,739.000000) scale(0.100000,-0.100000)" fill="#000000" stroke="none">
<path d="M2887 1403 c-3 -5 -22 -53 -42 -108 -20 -55 -43 -110 -51 -122 -7
-12 -16 -39 -20 -61 l-6 -40 48 -6 c27 -3 90 -8 139 -11 50 -3 106 -8 125 -11
55 -7 77 18 91 101 14 82 13 219 -2 246 -9 17 -22 19 -144 19 -73 0 -136 -3
-138 -7z"></path>
<path d="M3831 1391 c-15 -27 -16 -163 -2 -246 14 -83 36 -108 91 -101 19 3
76 8 125 11 50 3 112 8 139 11 l48 6 -6 41 c-4 23 -11 46 -17 53 -5 6 -29 63
-52 125 l-43 114 -137 3 c-126 2 -137 1 -146 -17z"></path>
</g>
</svg>