 <svg version="1.0" xmlns="http://www.w3.org/2000/svg" width="700.000000pt" height="739.000000pt" viewBox="0 0 700.000000 739.000000" preserveAspectRatio="xMidYMid meet">
<metadata>
Created by potrace 1.12, written by Peter Selinger 2001-2015
</metadata>
<g transform="translate(0.000000,739.000000) scale(0.100000,-0.100000)" fill="#000000" stroke="none">
<path d="M3207 6054 c-94 -23 -111 -35 -136 -104 l-23 -62 21 -22 21 -22 -72
-34 c-268 -124 -255 -116 -298 -176 -23 -30 -100 -178 -170 -327 -70 -150
-213 -444 -317 -655 l-189 -382 20 -19 c21 -19 158 -91 173 -91 9 0 92 98 198
230 32 41 86 107 118 145 39 46 86 123 138 225 71 139 210 349 236 357 6 2 22
-46 37 -107 25 -106 26 -123 26 -393 0 -155 3 -306 6 -334 l7 -53 497 0 497 0
6 68 c4 37 7 188 7 336 0 257 1 274 26 378 15 60 31 107 37 105 26 -8 165
-218 236 -357 52 -102 99 -179 138 -225 32 -38 86 -104 119 -145 121 -153 187
-230 196 -230 16 0 152 72 174 91 l20 19 -199 402 c-208 422 -213 432 -351
727 -47 101 -104 208 -127 239 -36 47 -53 60 -138 99 -53 24 -126 58 -164 75
l-67 32 21 22 21 22 -23 62 c-20 56 -27 65 -63 80 -23 10 -67 23 -99 30 -53
11 -60 10 -72 -7 -8 -10 -12 -25 -8 -33 3 -8 8 -25 10 -37 3 -12 18 -36 34
-54 16 -18 29 -38 29 -45 0 -7 -18 -35 -39 -62 -41 -52 -46 -65 -96 -292 -77
-345 -112 -480 -125 -480 -4 0 -13 15 -19 33 -13 44 -61 242 -106 447 -51 228
-55 243 -96 294 -21 27 -39 54 -39 60 0 7 12 25 26 42 37 42 56 101 41 125
-14 22 -22 22 -100 3z"></path>
</g>
</svg>