 <svg version="1.0" xmlns="http://www.w3.org/2000/svg" width="700.000000pt" height="739.000000pt" viewBox="0 0 700.000000 739.000000" preserveAspectRatio="xMidYMid meet">
<metadata>
Created by potrace 1.12, written by Peter Selinger 2001-2015
</metadata>
<g transform="translate(0.000000,739.000000) scale(0.100000,-0.100000)" fill="#000000" stroke="none">
<path d="M3305 6420 c-3 -5 -15 -10 -26 -10 -21 0 -26 -29 -7 -48 6 -6 14 -31
17 -54 l6 -43 58 -3 c72 -4 94 9 126 73 l23 47 19 -29 c10 -15 19 -33 19 -39
0 -6 11 -21 24 -33 20 -19 33 -22 82 -19 l58 3 23 65 c28 81 28 80 -1 80 -14
0 -28 5 -31 10 -8 14 -71 13 -98 -2 -28 -14 -165 -14 -180 1 -14 14 -104 15
-112 1z"></path>
</g>
</svg>