 <svg version="1.0" xmlns="http://www.w3.org/2000/svg" width="700.000000pt" height="739.000000pt" viewBox="0 0 700.000000 739.000000" preserveAspectRatio="xMidYMid meet">
<metadata>
Created by potrace 1.12, written by Peter Selinger 2001-2015
</metadata>
<g transform="translate(0.000000,739.000000) scale(0.100000,-0.100000)" fill="#000000" stroke="none">
<path d="M3402 6701 c-100 -35 -166 -130 -192 -277 -23 -127 7 -162 61 -74 20
32 48 60 77 78 43 25 56 27 148 27 93 0 104 -2 142 -28 24 -15 59 -50 78 -77
64 -89 97 -56 74 74 -27 151 -94 245 -201 279 -66 22 -121 21 -187 -2z"></path>
</g>
</svg>