 <svg version="1.0" xmlns="http://www.w3.org/2000/svg" width="700.000000pt" height="739.000000pt" viewBox="0 0 700.000000 739.000000" preserveAspectRatio="xMidYMid meet">
<metadata>
Created by potrace 1.12, written by Peter Selinger 2001-2015
</metadata>
<g transform="translate(0.000000,739.000000) scale(0.100000,-0.100000)" fill="#000000" stroke="none">
<path d="M3207 6054 c-94 -23 -111 -35 -136 -104 -21 -56 -21 -63 -7 -79 9
-10 16 -20 16 -23 0 -3 -29 -20 -65 -38 -36 -18 -65 -37 -65 -42 0 -5 7 -22
15 -38 24 -47 55 -190 55 -258 0 -80 -24 -199 -56 -269 -30 -68 -30 -74 1
-198 23 -94 24 -117 25 -385 0 -157 3 -309 6 -337 l7 -53 497 0 497 0 6 68 c4
37 7 188 7 336 0 256 1 275 26 377 l26 107 -26 66 c-66 164 -63 357 9 514 13
28 29 52 34 52 28 0 5 18 -59 45 -38 17 -77 36 -86 42 -16 12 -16 14 0 32 17
19 17 22 -5 82 -20 55 -27 64 -63 79 -23 10 -67 23 -99 30 -53 11 -60 10 -72
-7 -8 -10 -12 -25 -8 -33 3 -8 8 -25 10 -37 3 -12 18 -36 34 -54 16 -18 29
-37 29 -42 0 -6 -25 -43 -55 -84 -48 -63 -64 -77 -122 -103 -36 -17 -74 -30
-83 -30 -9 0 -47 13 -83 30 -58 26 -74 40 -122 103 -30 41 -55 78 -55 83 0 5
12 23 26 40 37 42 56 101 41 125 -14 22 -22 22 -100 3z"></path>
</g>
</svg>