 <svg version="1.0" xmlns="http://www.w3.org/2000/svg" width="700.000000pt" height="739.000000pt" viewBox="0 0 700.000000 739.000000" preserveAspectRatio="xMidYMid meet">
<metadata>
Created by potrace 1.12, written by Peter Selinger 2001-2015
</metadata>
<g transform="translate(0.000000,739.000000) scale(0.100000,-0.100000)" fill="#000000" stroke="none">
<path d="M2884 1461 c-2 -2 -4 -20 -4 -38 0 -34 -60 -209 -86 -250 -7 -12 -16
-39 -20 -61 l-6 -40 48 -6 c27 -3 90 -8 139 -11 50 -3 106 -8 125 -11 59 -7
77 16 93 121 9 57 11 110 7 145 -5 30 -11 78 -15 105 l-7 50 -135 0 c-74 0
-137 -2 -139 -4z"></path>
<path d="M3836 1420 c-3 -25 -10 -72 -15 -105 -5 -41 -4 -88 6 -150 16 -105
34 -128 93 -121 19 3 76 8 125 11 50 3 112 8 139 11 l48 6 -6 41 c-4 23 -11
46 -16 52 -19 23 -83 202 -89 248 l-6 49 -136 1 -137 2 -6 -45z"></path>
</g>
</svg>