 <svg version="1.0" xmlns="http://www.w3.org/2000/svg" width="700.000000pt" height="739.000000pt" viewBox="0 0 700.000000 739.000000" preserveAspectRatio="xMidYMid meet">
<metadata>
Created by potrace 1.12, written by Peter Selinger 2001-2015
</metadata>
<g transform="translate(0.000000,739.000000) scale(0.100000,-0.100000)" fill="#000000" stroke="none">
<path d="M3231 5945 c-52 -58 -43 -53 -346 -195 -49 -23 -99 -46 -110 -50 -12
-4 -69 -79 -127 -166 -59 -88 -128 -190 -154 -227 -40 -57 -45 -71 -37 -90 7
-14 75 -57 184 -117 95 -52 176 -96 180 -98 4 -2 27 33 51 77 23 45 46 81 49
81 4 0 21 -59 38 -130 31 -130 31 -132 31 -413 0 -155 3 -306 6 -334 l7 -53
497 0 497 0 6 68 c4 37 7 189 7 337 0 254 2 276 25 375 14 58 28 115 30 128 3
12 9 22 13 22 4 0 25 -34 47 -75 24 -45 46 -75 56 -75 28 0 353 187 362 209 8
16 -3 38 -58 118 -37 54 -106 156 -153 226 -47 71 -95 133 -106 137 -12 4 -61
27 -111 50 -303 142 -294 137 -346 195 -28 30 -59 55 -68 55 -9 0 -58 -42
-110 -94 l-93 -93 -90 93 c-50 52 -99 94 -108 94 -10 0 -41 -25 -69 -55z"></path>
</g>
</svg>