 <svg version="1.0" xmlns="http://www.w3.org/2000/svg" width="700.000000pt" height="739.000000pt" viewBox="0 0 700.000000 739.000000" preserveAspectRatio="xMidYMid meet">
<metadata>
Created by potrace 1.12, written by Peter Selinger 2001-2015
</metadata>
<g transform="translate(0.000000,739.000000) scale(0.100000,-0.100000)" fill="#000000" stroke="none">
<path d="M3242 5957 c-23 -23 -42 -48 -42 -54 0 -5 -28 -23 -62 -38 -60 -27
-140 -64 -305 -141 -99 -46 -128 -88 -283 -417 -70 -150 -213 -444 -317 -655
l-189 -382 20 -19 c21 -19 158 -91 173 -91 9 0 92 98 198 230 32 41 86 107
118 145 39 46 86 123 138 225 71 139 210 349 236 357 6 2 22 -46 37 -107 25
-106 26 -123 26 -393 0 -155 3 -306 6 -334 l7 -53 497 0 497 0 6 68 c4 37 7
188 7 336 0 257 1 274 26 378 15 60 31 107 37 105 26 -8 165 -218 236 -357 52
-102 99 -179 138 -225 32 -38 86 -104 119 -145 121 -153 187 -230 196 -230 16
0 152 72 174 91 l20 19 -199 402 c-208 422 -213 432 -351 727 -111 238 -144
282 -245 328 -42 20 -112 52 -156 73 -44 20 -108 49 -142 65 -35 15 -63 33
-63 38 0 17 -82 97 -100 97 -8 0 -57 -42 -109 -94 l-93 -93 -90 93 c-50 52
-98 94 -107 94 -9 0 -36 -19 -59 -43z"></path>
</g>
</svg>