 <svg version="1.0" xmlns="http://www.w3.org/2000/svg" width="700.000000pt" height="739.000000pt" viewBox="0 0 700.000000 739.000000" preserveAspectRatio="xMidYMid meet">
<metadata>
Created by potrace 1.12, written by Peter Selinger 2001-2015
</metadata>
<g transform="translate(0.000000,739.000000) scale(0.100000,-0.100000)" fill="#000000" stroke="none">
<path d="M3213 6040 c-27 -32 -44 -65 -48 -92 -7 -41 -6 -42 53 -97 52 -48
173 -207 188 -246 3 -7 -4 -32 -16 -54 -11 -23 -27 -85 -35 -139 -14 -99 -53
-636 -57 -797 l-3 -90 86 -3 87 -3 7 38 8 38 8 -40 c4 -22 8 -62 9 -90 0 -27
3 -67 7 -89 l6 -39 84 6 c46 3 87 7 89 10 3 3 -4 135 -16 294 -11 158 -26 410
-32 560 -12 283 -10 303 29 303 31 0 75 33 90 67 18 44 11 77 -28 125 -36 45
-36 60 -1 123 23 42 33 51 62 55 67 11 73 25 39 93 -21 41 -31 51 -76 83 -21
15 -26 15 -68 -5 -25 -11 -50 -21 -55 -21 -14 0 -52 -43 -91 -102 l-31 -48
-32 22 c-17 12 -49 36 -71 53 -22 18 -54 39 -72 48 -24 13 -32 24 -35 49 -5
53 -36 49 -85 -12z"></path>
</g>
</svg>