 <svg version="1.0" xmlns="http://www.w3.org/2000/svg" width="700.000000pt" height="739.000000pt" viewBox="0 0 700.000000 739.000000" preserveAspectRatio="xMidYMid meet">
<metadata>
Created by potrace 1.12, written by Peter Selinger 2001-2015
</metadata>
<g transform="translate(0.000000,739.000000) scale(0.100000,-0.100000)" fill="#000000" stroke="none">
<path d="M3150 5872 c-31 -15 -89 -42 -130 -61 -265 -122 -257 -117 -300 -177
-23 -30 -100 -178 -170 -327 -70 -150 -213 -444 -317 -655 l-189 -382 20 -19
c21 -19 158 -91 173 -91 9 0 92 98 198 230 32 41 86 107 118 145 39 46 86 123
138 225 71 139 210 349 236 357 6 2 22 -46 37 -107 25 -106 26 -123 26 -393 0
-155 3 -306 6 -334 l7 -53 497 0 497 0 6 68 c4 37 7 188 7 336 0 257 1 274 26
378 15 60 31 107 37 105 26 -8 165 -218 236 -357 52 -102 99 -179 138 -225 32
-38 86 -104 119 -145 121 -153 187 -230 196 -230 16 0 152 72 174 91 l20 19
-199 402 c-208 422 -213 432 -351 727 -47 101 -104 208 -127 239 -43 56 -43
56 -249 150 -25 11 -89 41 -144 66 -54 25 -100 46 -102 46 -1 0 -33 -38 -70
-85 -58 -75 -74 -90 -132 -115 -35 -17 -73 -30 -82 -30 -9 0 -47 13 -82 30
-58 25 -74 40 -132 115 -37 47 -70 85 -74 84 -4 0 -32 -13 -62 -27z"></path>
</g>
</svg>