 <svg version="1.0" xmlns="http://www.w3.org/2000/svg" width="700.000000pt" height="739.000000pt" viewBox="0 0 700.000000 739.000000" preserveAspectRatio="xMidYMid meet">
<metadata>
Created by potrace 1.12, written by Peter Selinger 2001-2015
</metadata>
<g transform="translate(0.000000,739.000000) scale(0.100000,-0.100000)" fill="#000000" stroke="none">
<path d="M3128 1255 c-6 -14 -18 -25 -27 -25 -9 -1 -33 -7 -53 -14 -34 -12
-42 -11 -105 15 -80 34 -89 35 -102 10 -13 -23 -5 -30 72 -62 116 -47 102 -71
-36 -61 -54 4 -100 6 -103 3 -4 -4 -6 -51 -1 -51 1 0 78 -7 171 -15 212 -18
209 -19 226 98 6 45 12 88 13 96 1 7 -8 17 -21 22 -19 7 -25 4 -34 -16z m-20
-117 c-2 -28 -7 -33 -28 -33 -20 0 -26 6 -28 27 -3 26 -1 28 51 37 5 0 7 -14
5 -31z"></path>
<path d="M3834 1270 c-21 -8 -21 -10 -8 -97 8 -48 14 -91 14 -94 0 -4 10 -14
23 -22 23 -15 86 -12 365 13 6 0 1 49 -5 53 -5 2 -51 0 -103 -4 -135 -11 -148
14 -33 60 77 32 85 39 72 62 -13 25 -22 24 -102 -10 -63 -26 -71 -27 -105 -15
-20 7 -45 13 -54 14 -10 0 -18 4 -18 8 0 22 -26 40 -46 32z m102 -110 c11 0
14 -8 12 -27 -2 -22 -8 -28 -28 -28 -21 0 -26 5 -28 34 -3 28 -1 33 13 27 9
-3 23 -6 31 -6z"></path>
</g>
</svg>