 <svg version="1.0" xmlns="http://www.w3.org/2000/svg" width="700.000000pt" height="739.000000pt" viewBox="0 0 700.000000 739.000000" preserveAspectRatio="xMidYMid meet">
<metadata>
Created by potrace 1.12, written by Peter Selinger 2001-2015
</metadata>
<g transform="translate(0.000000,739.000000) scale(0.100000,-0.100000)" fill="#000000" stroke="none">
<path d="M3001 4228 c-7 -11 -47 -188 -89 -392 -84 -417 -75 -321 -105 -1128
-12 -305 -12 -402 -1 -580 28 -452 43 -647 49 -658 4 -6 77 -10 205 -10 179 0
199 2 205 18 6 16 17 201 50 837 8 165 20 337 25 383 9 79 149 622 160 622 5
0 48 -154 126 -451 38 -145 36 -124 93 -1199 6 -96 13 -183 16 -193 6 -15 26
-17 205 -17 128 0 201 4 205 10 4 6 13 109 21 228 43 664 42 615 27 1012 -29
800 -21 709 -105 1126 -42 204 -82 381 -89 392 l-14 22 -485 0 -485 0 -14 -22z"></path>
</g>
</svg>