 <svg version="1.0" xmlns="http://www.w3.org/2000/svg" width="700.000000pt" height="739.000000pt" viewBox="0 0 700.000000 739.000000" preserveAspectRatio="xMidYMid meet">
<metadata>
Created by potrace 1.12, written by Peter Selinger 2001-2015
</metadata>
<g transform="translate(0.000000,739.000000) scale(0.100000,-0.100000)" fill="#000000" stroke="none">
<path d="M3095 5846 c-164 -77 -153 -67 -132 -111 28 -58 57 -193 57 -263 0
-80 -24 -199 -56 -269 -30 -68 -30 -74 1 -198 23 -94 24 -117 25 -385 0 -157
3 -309 6 -337 l7 -53 497 0 497 0 6 68 c4 37 7 188 7 336 0 256 1 275 26 377
l26 107 -26 66 c-66 165 -63 357 9 515 14 29 25 57 25 62 0 5 -19 17 -42 28
-24 11 -87 40 -142 65 -54 25 -100 46 -102 46 -1 0 -33 -38 -70 -85 -58 -75
-74 -90 -132 -115 -35 -17 -73 -30 -82 -30 -9 0 -47 13 -82 30 -58 25 -74 40
-132 115 -37 47 -70 85 -74 84 -4 0 -56 -24 -117 -53z"></path>
</g>
</svg>