 <svg version="1.0" xmlns="http://www.w3.org/2000/svg" width="700.000000pt" height="739.000000pt" viewBox="0 0 700.000000 739.000000" preserveAspectRatio="xMidYMid meet">
<metadata>
Created by potrace 1.12, written by Peter Selinger 2001-2015
</metadata>
<g transform="translate(0.000000,739.000000) scale(0.100000,-0.100000)" fill="#000000" stroke="none">
<path d="M3006 4233 c-5 -19 -41 -168 -100 -423 -20 -85 -45 -189 -55 -230
-28 -107 -53 -601 -32 -614 5 -4 47 -13 93 -21 372 -65 494 -83 501 -76 7 7
25 122 74 459 8 59 19 61 26 4 20 -156 67 -456 74 -463 10 -10 582 86 596 100
7 7 7 90 -2 273 -12 249 -15 271 -53 428 -21 91 -48 201 -58 245 -48 203 -71
301 -76 318 -5 16 -37 17 -494 17 -457 0 -489 -1 -494 -17z"></path>
</g>
</svg>