 <svg version="1.0" xmlns="http://www.w3.org/2000/svg" width="700.000000pt" height="739.000000pt" viewBox="0 0 700.000000 739.000000" preserveAspectRatio="xMidYMid meet">
<metadata>
Created by potrace 1.12, written by Peter Selinger 2001-2015
</metadata>
<g transform="translate(0.000000,739.000000) scale(0.100000,-0.100000)" fill="currentColor" stroke="none">
<path d="M3150 5872 c-30 -15 -105 -49 -165 -77 -60 -27 -136 -63 -169 -80
-65 -32 -63 -29 -241 -290 -49 -71 -98 -142 -109 -157 -33 -46 -15 -64 175
-168 95 -52 176 -96 180 -98 4 -2 27 33 51 77 23 45 46 81 49 81 4 0 21 -59
38 -130 31 -130 31 -132 31 -413 0 -155 3 -306 6 -334 l7 -53 497 0 497 0 6
68 c4 37 7 189 7 337 0 254 2 276 25 375 14 58 28 115 30 128 3 12 9 22 13 22
4 0 25 -34 47 -75 24 -45 46 -75 56 -75 21 0 340 177 357 198 6 9 12 21 12 26
0 10 -205 313 -280 415 -32 43 -41 49 -240 139 -25 11 -89 41 -144 66 -54 25
-100 46 -102 46 -1 0 -33 -38 -70 -85 -58 -75 -74 -90 -132 -115 -35 -17 -73
-30 -82 -30 -9 0 -47 13 -82 30 -58 25 -74 40 -132 115 -37 47 -70 85 -74 84
-4 0 -32 -13 -62 -27z"></path>
</g>
</svg>